<svg width="52" height="12" viewBox="0 0 52 12" fill="none" xmlns="http://www.w3.org/2000/svg">
<path d="M7.584 7.296L5.728 2.72L3.872 7.296H7.584ZM9.488 12L8.224 8.88H3.232L1.968 12H0.32L4.848 0.799999H6.608L11.136 12H9.488ZM14.9571 12H12.7651V0.799999H14.9571C15.8211 0.799999 16.6318 0.949333 17.3891 1.248C18.1571 1.536 18.7971 1.936 19.3091 2.448C19.8318 2.97067 20.2318 3.55733 20.5091 4.208C20.7971 4.848 20.9411 5.57867 20.9411 6.4C20.9411 7.22133 20.7971 7.95733 20.5091 8.608C20.2318 9.248 19.8318 9.82933 19.3091 10.352C18.7971 10.864 18.1571 11.2693 17.3891 11.568C16.6318 11.856 15.8211 12 14.9571 12ZM14.8451 10.464C15.5491 10.464 16.1731 10.3627 16.7171 10.16C17.2611 9.94667 17.7251 9.65333 18.1091 9.28C18.5038 8.90667 18.7918 8.49067 18.9731 8.032C19.1651 7.56267 19.2611 7.01867 19.2611 6.4C19.2611 5.78133 19.1651 5.24267 18.9731 4.784C18.7918 4.31467 18.5038 3.89333 18.1091 3.52C17.7251 3.14667 17.2611 2.85867 16.7171 2.656C16.1731 2.44267 15.5491 2.336 14.8451 2.336H14.3811V10.464H14.8451ZM28.8883 7.312L32.9203 0.799999H34.8243V12H33.2243V3.168L29.6243 8.976H28.1523L24.5683 3.168V12H22.9683V0.799999H24.8723L28.8883 7.312ZM39.1326 12H37.5006V0.799999H39.1326V12ZM49.236 12L43.412 3.328V12H41.812V0.799999H43.588L49.428 9.52V0.799999H51.028V12H49.236Z" fill="#0071D9"/>
</svg>
