<svg width="198" height="60" viewBox="0 0 198 60" fill="none" xmlns="http://www.w3.org/2000/svg">
<path d="M7.584 8.296L5.728 3.72L3.872 8.296H7.584ZM9.488 13L8.224 9.88H3.232L1.968 13H0.32L4.848 1.8H6.608L11.136 13H9.488ZM14.9571 13H12.7651V1.8H14.9571C15.8211 1.8 16.6318 1.94933 17.3891 2.248C18.1571 2.536 18.7971 2.936 19.3091 3.448C19.8318 3.97067 20.2318 4.55733 20.5091 5.208C20.7971 5.848 20.9411 6.57867 20.9411 7.4C20.9411 8.22133 20.7971 8.95733 20.5091 9.608C20.2318 10.248 19.8318 10.8293 19.3091 11.352C18.7971 11.864 18.1571 12.2693 17.3891 12.568C16.6318 12.856 15.8211 13 14.9571 13ZM14.8451 11.464C15.5491 11.464 16.1731 11.3627 16.7171 11.16C17.2611 10.9467 17.7251 10.6533 18.1091 10.28C18.5038 9.90667 18.7918 9.49067 18.9731 9.032C19.1651 8.56267 19.2611 8.01867 19.2611 7.4C19.2611 6.78133 19.1651 6.24267 18.9731 5.784C18.7918 5.31467 18.5038 4.89333 18.1091 4.52C17.7251 4.14667 17.2611 3.85867 16.7171 3.656C16.1731 3.44267 15.5491 3.336 14.8451 3.336H14.3811V11.464H14.8451ZM28.8883 8.312L32.9203 1.8H34.8243V13H33.2243V4.168L29.6243 9.976H28.1523L24.5683 4.168V13H22.9683V1.8H24.8723L28.8883 8.312ZM39.1326 13H37.5006V1.8H39.1326V13ZM49.236 13L43.412 4.328V13H41.812V1.8H43.588L49.428 10.52V1.8H51.028V13H49.236Z" fill="#0071D9"/>
<path d="M18.08 40.28L28.16 24H32.92V52H28.92V29.92L19.92 44.44H16.24L7.28 29.92V52H3.28V24H8.04L18.08 40.28ZM50.3309 48.48C52.4643 48.48 54.1443 47.76 55.3709 46.32C56.5976 44.8533 57.2109 42.84 57.2109 40.28V24H61.2509V40.24C61.2509 42.16 60.9843 43.88 60.4509 45.4C59.9443 46.8933 59.2109 48.16 58.2509 49.2C57.2909 50.24 56.1309 51.04 54.7709 51.6C53.4376 52.1333 51.9576 52.4 50.3309 52.4C48.6776 52.4 47.1843 52.1333 45.8509 51.6C44.5176 51.04 43.3709 50.24 42.4109 49.2C41.4509 48.16 40.7043 46.8933 40.1709 45.4C39.6643 43.88 39.4109 42.16 39.4109 40.24V24H43.4509V40.28C43.4509 42.84 44.0643 44.8533 45.2909 46.32C46.5176 47.76 48.1976 48.48 50.3309 48.48ZM75.6931 48.52C77.1598 48.52 78.3198 48.1333 79.1731 47.36C80.0265 46.5867 80.4531 45.5467 80.4531 44.24C80.4531 43.4933 80.3331 42.8933 80.0931 42.44C79.8798 41.96 79.5465 41.56 79.0931 41.24C78.6665 40.8933 78.1331 40.6 77.4931 40.36C76.8531 40.0933 76.1331 39.8133 75.3331 39.52L73.4131 38.8C72.3465 38.4 71.4398 37.9867 70.6931 37.56C69.9731 37.1333 69.3465 36.6 68.8131 35.96C68.2798 35.32 67.8665 34.6267 67.5731 33.88C67.2798 33.1333 67.1331 32.2533 67.1331 31.24C67.1331 30.3333 67.2931 29.4267 67.6131 28.52C67.9598 27.6133 68.4798 26.8 69.1731 26.08C69.8931 25.3333 70.7865 24.7333 71.8531 24.28C72.9198 23.8267 74.1865 23.6 75.6531 23.6C78.3465 23.6 80.4531 24.3467 81.9731 25.84C83.4931 27.3333 84.2531 29.3733 84.2531 31.96H80.0131V31.44C80.0131 30.16 79.5998 29.1867 78.7731 28.52C77.9731 27.8267 76.9331 27.48 75.6531 27.48C74.3465 27.48 73.3065 27.8133 72.5331 28.48C71.7598 29.12 71.3731 30.0133 71.3731 31.16C71.3731 31.6667 71.4398 32.12 71.5731 32.52C71.7331 32.8933 71.9865 33.2533 72.3331 33.6C72.7065 33.92 73.1865 34.24 73.7731 34.56C74.3865 34.8533 75.1331 35.16 76.0131 35.48L77.6131 36.08C78.8665 36.5333 79.8798 36.9867 80.6531 37.44C81.4531 37.8933 82.1598 38.44 82.7731 39.08C83.3865 39.72 83.8531 40.4267 84.1731 41.2C84.5198 41.9733 84.6931 42.9333 84.6931 44.08C84.6931 45.2 84.4665 46.2667 84.0131 47.28C83.5865 48.2667 82.9731 49.1467 82.1731 49.92C81.3731 50.6667 80.4131 51.2667 79.2931 51.72C78.1998 52.1733 76.9998 52.4 75.6931 52.4C74.3865 52.4 73.1731 52.2 72.0531 51.8C70.9331 51.4 69.9598 50.8267 69.1331 50.08C68.3065 49.3067 67.6531 48.36 67.1731 47.24C66.6931 46.12 66.4531 44.8533 66.4531 43.44H70.6931V43.84C70.6931 45.3067 71.1598 46.4533 72.0931 47.28C73.0265 48.1067 74.2265 48.52 75.6931 48.52ZM93.5738 52H89.4938V24H93.5738V52ZM118.832 52L104.272 30.32V52H100.272V24H104.712L119.312 45.8V24H123.312V52H118.832ZM137.842 48.52C139.308 48.52 140.468 48.1333 141.322 47.36C142.175 46.5867 142.602 45.5467 142.602 44.24C142.602 43.4933 142.482 42.8933 142.242 42.44C142.028 41.96 141.695 41.56 141.242 41.24C140.815 40.8933 140.282 40.6 139.642 40.36C139.002 40.0933 138.282 39.8133 137.482 39.52L135.562 38.8C134.495 38.4 133.588 37.9867 132.842 37.56C132.122 37.1333 131.495 36.6 130.962 35.96C130.428 35.32 130.015 34.6267 129.722 33.88C129.428 33.1333 129.282 32.2533 129.282 31.24C129.282 30.3333 129.442 29.4267 129.762 28.52C130.108 27.6133 130.628 26.8 131.322 26.08C132.042 25.3333 132.935 24.7333 134.002 24.28C135.068 23.8267 136.335 23.6 137.802 23.6C140.495 23.6 142.602 24.3467 144.122 25.84C145.642 27.3333 146.402 29.3733 146.402 31.96H142.162V31.44C142.162 30.16 141.748 29.1867 140.922 28.52C140.122 27.8267 139.082 27.48 137.802 27.48C136.495 27.48 135.455 27.8133 134.682 28.48C133.908 29.12 133.522 30.0133 133.522 31.16C133.522 31.6667 133.588 32.12 133.722 32.52C133.882 32.8933 134.135 33.2533 134.482 33.6C134.855 33.92 135.335 34.24 135.922 34.56C136.535 34.8533 137.282 35.16 138.162 35.48L139.762 36.08C141.015 36.5333 142.028 36.9867 142.802 37.44C143.602 37.8933 144.308 38.44 144.922 39.08C145.535 39.72 146.002 40.4267 146.322 41.2C146.668 41.9733 146.842 42.9333 146.842 44.08C146.842 45.2 146.615 46.2667 146.162 47.28C145.735 48.2667 145.122 49.1467 144.322 49.92C143.522 50.6667 142.562 51.2667 141.442 51.72C140.348 52.1733 139.148 52.4 137.842 52.4C136.535 52.4 135.322 52.2 134.202 51.8C133.082 51.4 132.108 50.8267 131.282 50.08C130.455 49.3067 129.802 48.36 129.322 47.24C128.842 46.12 128.602 44.8533 128.602 43.44H132.842V43.84C132.842 45.3067 133.308 46.4533 134.242 47.28C135.175 48.1067 136.375 48.52 137.842 48.52ZM166.382 40.24L161.742 28.8L157.102 40.24H166.382ZM171.142 52L167.982 44.2H155.502L152.342 52H148.222L159.542 24H163.942L175.262 52H171.142ZM183.375 27.84V36.96H186.975C187.855 36.96 188.588 36.84 189.175 36.6C189.761 36.36 190.255 36.0533 190.655 35.68C191.481 34.8533 191.895 33.76 191.895 32.4C191.895 31.7067 191.775 31.08 191.535 30.52C191.321 29.96 191.028 29.48 190.655 29.08C190.255 28.68 189.748 28.3733 189.135 28.16C188.548 27.9467 187.828 27.84 186.975 27.84H183.375ZM183.375 40.8V52H179.335V24H187.335C188.748 24 189.975 24.2133 191.015 24.64C192.081 25.04 192.988 25.6267 193.735 26.4C194.508 27.1467 195.095 28.0267 195.495 29.04C195.921 30.0533 196.135 31.16 196.135 32.36C196.135 33.5867 195.921 34.7067 195.495 35.72C195.095 36.7333 194.508 37.6267 193.735 38.4C192.961 39.1733 192.055 39.7733 191.015 40.2C189.975 40.6 188.748 40.8 187.335 40.8H183.375Z" fill="white"/>
</svg>
