<svg width="194" height="30" viewBox="0 0 194 30" fill="none" xmlns="http://www.w3.org/2000/svg">
<path d="M180.375 4.84V13.96H183.975C184.855 13.96 185.588 13.84 186.175 13.6C186.762 13.36 187.255 13.0533 187.655 12.68C188.482 11.8533 188.895 10.76 188.895 9.4C188.895 8.70667 188.775 8.08 188.535 7.52C188.322 6.96 188.028 6.48 187.655 6.08C187.255 5.68 186.748 5.37334 186.135 5.16C185.548 4.94667 184.828 4.84 183.975 4.84H180.375ZM180.375 17.8V29H176.335V1H184.335C185.748 1 186.975 1.21333 188.015 1.64C189.082 2.04 189.988 2.62667 190.735 3.4C191.508 4.14667 192.095 5.02667 192.495 6.04C192.922 7.05333 193.135 8.16 193.135 9.36C193.135 10.5867 192.922 11.7067 192.495 12.72C192.095 13.7333 191.508 14.6267 190.735 15.4C189.962 16.1733 189.055 16.7733 188.015 17.2C186.975 17.6 185.748 17.8 184.335 17.8H180.375Z" fill="white"/>
<path d="M163.382 17.24L158.742 5.8L154.102 17.24H163.382ZM168.142 29L164.982 21.2H152.502L149.342 29H145.222L156.542 1H160.942L172.262 29H168.142Z" fill="white"/>
<path d="M134.842 25.52C136.308 25.52 137.468 25.1333 138.322 24.36C139.175 23.5867 139.602 22.5467 139.602 21.24C139.602 20.4933 139.482 19.8933 139.242 19.44C139.028 18.96 138.695 18.56 138.242 18.24C137.815 17.8933 137.282 17.6 136.642 17.36C136.002 17.0933 135.282 16.8133 134.482 16.52L132.562 15.8C131.495 15.4 130.588 14.9867 129.842 14.56C129.122 14.1333 128.495 13.6 127.962 12.96C127.428 12.32 127.015 11.6267 126.722 10.88C126.428 10.1333 126.282 9.25333 126.282 8.24C126.282 7.33333 126.442 6.42667 126.762 5.52C127.108 4.61333 127.628 3.8 128.322 3.08C129.042 2.33333 129.935 1.73333 131.002 1.28C132.068 0.826665 133.335 0.599998 134.802 0.599998C137.495 0.599998 139.602 1.34667 141.122 2.84C142.642 4.33333 143.402 6.37333 143.402 8.96H139.162V8.44C139.162 7.16 138.748 6.18667 137.922 5.52C137.122 4.82667 136.082 4.48 134.802 4.48C133.495 4.48 132.455 4.81333 131.682 5.48C130.908 6.12 130.522 7.01333 130.522 8.16C130.522 8.66667 130.588 9.12 130.722 9.52C130.882 9.89333 131.135 10.2533 131.482 10.6C131.855 10.92 132.335 11.24 132.922 11.56C133.535 11.8533 134.282 12.16 135.162 12.48L136.762 13.08C138.015 13.5333 139.028 13.9867 139.802 14.44C140.602 14.8933 141.308 15.44 141.922 16.08C142.535 16.72 143.002 17.4267 143.322 18.2C143.668 18.9733 143.842 19.9333 143.842 21.08C143.842 22.2 143.615 23.2667 143.162 24.28C142.735 25.2667 142.122 26.1467 141.322 26.92C140.522 27.6667 139.562 28.2667 138.442 28.72C137.348 29.1733 136.148 29.4 134.842 29.4C133.535 29.4 132.322 29.2 131.202 28.8C130.082 28.4 129.108 27.8267 128.282 27.08C127.455 26.3067 126.802 25.36 126.322 24.24C125.842 23.12 125.602 21.8533 125.602 20.44H129.842V20.84C129.842 22.3067 130.308 23.4533 131.242 24.28C132.175 25.1067 133.375 25.52 134.842 25.52Z" fill="white"/>
<path d="M115.832 29L101.272 7.32V29H97.2725V1H101.712L116.312 22.8V1H120.312V29H115.832Z" fill="white"/>
<path d="M90.5741 29H86.4941V1H90.5741V29Z" fill="white"/>
<path d="M72.6931 25.52C74.1598 25.52 75.3198 25.1333 76.1731 24.36C77.0265 23.5867 77.4531 22.5467 77.4531 21.24C77.4531 20.4933 77.3331 19.8933 77.0931 19.44C76.8798 18.96 76.5465 18.56 76.0931 18.24C75.6665 17.8933 75.1331 17.6 74.4931 17.36C73.8531 17.0933 73.1331 16.8133 72.3331 16.52L70.4131 15.8C69.3465 15.4 68.4398 14.9867 67.6931 14.56C66.9731 14.1333 66.3465 13.6 65.8131 12.96C65.2798 12.32 64.8665 11.6267 64.5731 10.88C64.2798 10.1333 64.1331 9.25333 64.1331 8.24C64.1331 7.33333 64.2931 6.42667 64.6131 5.52C64.9598 4.61333 65.4798 3.8 66.1731 3.08C66.8931 2.33333 67.7865 1.73333 68.8531 1.28C69.9198 0.826665 71.1865 0.599998 72.6531 0.599998C75.3465 0.599998 77.4531 1.34667 78.9731 2.84C80.4931 4.33333 81.2531 6.37333 81.2531 8.96H77.0131V8.44C77.0131 7.16 76.5998 6.18667 75.7731 5.52C74.9731 4.82667 73.9331 4.48 72.6531 4.48C71.3465 4.48 70.3065 4.81333 69.5331 5.48C68.7598 6.12 68.3731 7.01333 68.3731 8.16C68.3731 8.66667 68.4398 9.12 68.5731 9.52C68.7331 9.89333 68.9865 10.2533 69.3331 10.6C69.7065 10.92 70.1865 11.24 70.7731 11.56C71.3865 11.8533 72.1331 12.16 73.0131 12.48L74.6131 13.08C75.8665 13.5333 76.8798 13.9867 77.6531 14.44C78.4531 14.8933 79.1598 15.44 79.7731 16.08C80.3865 16.72 80.8531 17.4267 81.1731 18.2C81.5198 18.9733 81.6931 19.9333 81.6931 21.08C81.6931 22.2 81.4665 23.2667 81.0131 24.28C80.5865 25.2667 79.9731 26.1467 79.1731 26.92C78.3731 27.6667 77.4131 28.2667 76.2931 28.72C75.1998 29.1733 73.9998 29.4 72.6931 29.4C71.3865 29.4 70.1731 29.2 69.0531 28.8C67.9331 28.4 66.9598 27.8267 66.1331 27.08C65.3065 26.3067 64.6531 25.36 64.1731 24.24C63.6931 23.12 63.4531 21.8533 63.4531 20.44H67.6931V20.84C67.6931 22.3067 68.1598 23.4533 69.0931 24.28C70.0265 25.1067 71.2265 25.52 72.6931 25.52Z" fill="white"/>
<path d="M47.3311 25.48C49.4645 25.48 51.1445 24.76 52.3711 23.32C53.5978 21.8533 54.2111 19.84 54.2111 17.28V1H58.2511V17.24C58.2511 19.16 57.9845 20.88 57.4511 22.4C56.9445 23.8933 56.2111 25.16 55.2511 26.2C54.2911 27.24 53.1311 28.04 51.7711 28.6C50.4378 29.1333 48.9578 29.4 47.3311 29.4C45.6778 29.4 44.1845 29.1333 42.8511 28.6C41.5178 28.04 40.3711 27.24 39.4111 26.2C38.4511 25.16 37.7045 23.8933 37.1711 22.4C36.6645 20.88 36.4111 19.16 36.4111 17.24V1H40.4511V17.28C40.4511 19.84 41.0645 21.8533 42.2911 23.32C43.5178 24.76 45.1978 25.48 47.3311 25.48Z" fill="white"/>
<path d="M15.0803 17.28L25.1603 1H29.9203V29H25.9203V6.92L16.9203 21.44H13.2403L4.28027 6.92V29H0.280273V1H5.04027L15.0803 17.28Z" fill="white"/>
</svg>
